<svg xmlns="http://www.w3.org/2000/svg" viewBox="37 35 123 132">
	<path stroke="#000000" stroke-width="2" fill="#000000" d="
M 37.885 85.301 
C 37.885 86.55 37.781 83.843 38.1394 87.6408 
C 38.822 92.278 45.3889 92.9432 48.9279 91.0897 
C 50.8384 90.0892 53.8735 90.3158 56.072 91.0188 
C 58.8168 91.8964 61.4042 93.602 63.7069 95.4014 
C 65.0926 96.4842 66.343 98.3293 66.6475 100.0138 
C 66.8771 101.2842 65.6864 103.9579 64.8243 104.0947 
C 58.8066 105.0502 53.1997 110.607 46.4295 105.4457 
C 44.9392 104.3095 40.1971 104.9537 39.104 106.4019 
C 37.6935 108.2707 37.3907 112.4157 38.5854 114.379 
C 39.6403 116.1126 43.4045 116.1976 46.5039 116.7886 
C 47.0167 116.5268 47.5294 116.2651 48.4358 115.6054 
C 48.9566 115.0709 49.4774 114.5363 50.8308 114.0035 
C 52.2172 113.9991 53.6037 113.9946 55.6087 113.8561 
C 56.4067 113.5875 57.2046 113.3189 58.4778 112.7119 
C 58.9985 112.1412 59.5192 111.5705 60.8472 111.0264 
C 63.9572 111.0831 66.9274 111.8914 66.6365 115.5795 
C 66.4905 117.4302 64.9428 119.9977 63.3269 120.7679 
C 54.3015 125.0691 48.2739 132.1799 44.2548 140.9352 
C 43.3966 142.8047 44.5402 146.7817 46.1574 148.2386 
C 47.5555 149.4982 51.7289 149.5419 53.231 148.3311 
C 54.9578 146.9392 56.08 143.4273 55.7273 141.0994 
C 54.8894 135.5683 56.782 130.4021 61.9575 128.2957 
C 63.2091 127.7863 65.6232 127.9962 66.4157 128.8659 
C 69.8464 132.6306 74.1493 132.8613 78.7355 133.1616 
C 80.7275 133.292 83.8575 134.5736 84.2606 135.9702 
C 84.8245 137.9242 84.0402 141.283 82.555 142.6017 
C 79.4525 145.3561 75.2305 146.8275 72.0212 149.4918 
C 70.0016 151.1685 68.1097 153.956 67.8359 156.4305 
C 67.6634 157.9893 70.5282 161.2426 72.1353 161.3121 
C 74.3814 161.4093 77.1317 159.6666 78.9211 157.9392 
C 81.0044 155.9283 81.9531 152.7621 83.9872 150.6756 
C 87.1908 147.3894 88.9078 143.8447 89.1765 139.1916 
C 89.2899 137.2271 91.312 135.3727 92.4666 133.4682 
C 93.6361 135.3537 95.8676 137.2896 95.7808 139.1154 
C 95.4934 145.1627 94.0498 151.1523 93.7091 157.2011 
C 93.5496 160.034 94.23 163.459 95.8579 165.6108 
C 96.6357 166.6389 101.1019 166.1461 102.8511 164.8877 
C 105.8606 162.7225 104.2334 159.4502 103.5158 156.2493 
C 102.1976 150.3696 101.572 144.291 101.2442 138.2634 
C 101.1607 136.7287 103.2799 135.0743 104.387 133.4749 
C 105.5727 134.9928 107.0926 136.3598 107.8631 138.0653 
C 108.9254 140.4168 108.7695 143.575 110.3085 145.3966 
C 112.8299 148.381 113.025 150.862 111.7772 154.4343 
C 109.7798 160.1529 113.2658 163.9037 118.9327 162.7364 
C 123.1867 161.8601 125.0727 157.1482 122.5549 152.762 
C 120.2469 148.7413 117.205 145.1341 114.9956 141.0681 
C 114.0258 139.2834 114.3201 136.8118 114.0404 134.6521 
C 116.1977 134.3944 119.0743 133.1241 120.3865 134.0562 
C 125.7565 137.8705 131.4181 141.7674 132.8972 148.9062 
C 133.5269 151.9453 134.6544 154.8842 138.0734 154.4035 
C 140.2819 154.093 143.6691 152.1164 143.941 150.4614 
C 144.3385 148.0416 142.7464 145.0432 141.3416 142.6849 
C 140.6367 141.5016 138.3013 141.4151 137.0011 140.4368 
C 133.5172 137.8154 128.8145 135.8551 129.1656 130.4487 
C 129.4106 126.6765 130.4465 122.9558 131.126 119.2116 
C 131.8079 115.4537 133.8394 114.5201 136.5356 117.3618 
C 139.4283 120.4106 141.9918 123.9719 143.8641 127.726 
C 145.3847 130.7748 147.1367 133.4236 150.4093 132.2927 
C 152.5663 131.5474 154.8237 128.882 155.5072 126.6153 
C 156.4684 123.428 154.4449 121.2134 151.0198 120.007 
C 148.1573 118.9987 145.5562 117.1368 142.9907 115.4259 
C 139.9803 113.4181 137.0728 111.2407 134.2474 108.9786 
C 133.1959 108.1368 132.5024 106.8478 131.6457 105.7627 
C 132.8916 104.8666 134.2036 103.1286 135.3718 103.2205 
C 140.3916 103.6154 145.4713 104.1563 150.3263 105.4224 
C 153.5713 106.2686 156.8731 106.8187 158.2443 103.7789 
C 159.3482 101.332 159.337 97.4822 158.1313 95.1153 
C 156.5337 91.9791 153.2445 92.3921 149.8032 93.7429 
C 145.6033 95.3914 141.0037 96.3362 136.5017 96.7342 
C 134.8698 96.8785 131.6258 94.6533 131.5465 93.3602 
C 131.3499 90.1553 131.4309 85.5249 133.4109 83.8643 
C 138.9115 79.2507 145.6487 76.1431 151.4388 71.8255 
C 153.4305 70.3403 155.2585 66.8822 154.9609 64.614 
C 154.7055 62.6668 151.3302 59.8227 149.3026 59.7959 
C 147.4221 59.7711 145.2649 62.7608 143.648 64.7614 
C 140.9847 68.0566 138.9224 71.8743 136.0309 74.9261 
C 135.1585 75.8468 131.267 75.6941 130.6622 74.7773 
C 127.763 70.3823 124.0126 69.2745 119.0657 69.7618 
C 117.3768 69.9281 114.4184 68.9401 114.0175 67.7902 
C 113.3619 65.9095 113.731 63.1373 114.7276 61.3234 
C 116.9841 57.2163 120.5572 55.9128 125.3191 57.478 
C 128.3286 58.4673 131.453 57.1657 131.9588 53.9346 
C 132.3382 51.5112 131.7072 48.074 130.125 46.4712 
C 128.8709 45.2008 124.515 44.9433 123.2204 46.1079 
C 116.7881 51.894 107.3427 55.5649 107.4716 66.5723 
C 107.4826 67.5136 105.3484 69.0228 104.0459 69.2295 
C 103.2855 69.3503 101.4044 67.4232 101.385 66.3918 
C 101.2523 59.3427 99.4118 52.1106 103.4811 45.4167 
C 105.4161 42.2338 105.4334 38.5412 102.0861 36.5858 
C 100.243 35.5092 96.6175 35.5273 94.8674 36.6797 
C 91.7838 38.71 91.5737 42.31 93.5749 45.5883 
C 97.648 52.2607 95.8667 59.5179 95.6023 66.5621 
C 95.5052 69.1509 91.9289 70.7803 91.277 68.4459 
C 89.6957 62.7842 81.369 59.189 86.1144 51.3216 
C 87.0932 49.6988 85.4848 45.4081 83.7472 43.663 
C 82.6783 42.5895 78.0312 43.1451 76.9128 44.526 
C 75.3887 46.4078 74.6377 50.1524 75.4483 52.4223 
C 76.9766 56.7028 79.9032 60.4748 82.1473 64.5145 
C 82.8269 65.7379 83.173 67.1466 83.6719 68.4704 
C 82.3281 68.9577 81.0206 69.6772 79.6345 69.8941 
C 71.3987 71.1825 67.4879 65.0788 62.9978 59.3322 
C 62.9975 58.8891 62.9972 58.446 63.2996 57.3724 
C 63.168 54.6222 63.8198 51.4386 62.6242 49.2769 
C 61.8519 47.8805 58.2099 47.1647 56.1414 47.5791 
C 51.725 48.4639 52.2383 52.5685 52.189 56.5096 
C 52.4515 57.0345 52.7141 57.5593 53.4689 58.5236 
C 55.9571 61.1687 58.1397 64.2185 60.9959 66.3766 
C 67.4038 71.2184 67.5203 77.7998 66.8351 84.7066 
C 66.484 88.2453 64.6018 89.2757 61.3471 87.5405 
C 59.6157 86.6173 57.8073 85.8385 55.3209 84.7247 
C 53.546 84.4788 51.771 84.2328 49.7159 83.367 
c -1.9098 -3.6928 -8.1859 -5.668 -11.6229 0.58 
z 
M 72.7138 76.356 
C 73.6792 75.6876 74.2628 75.1687 74.8447 75.1706 
C 90.953 75.2248 107.0612 75.332 123.1693 75.4303 
C 124.5263 78.267 125.8677 80.6138 125.8507 82.9508 
C 125.7589 95.5969 125.2628 108.2394 125.058 120.8856 
C 124.9918 124.9692 123.1692 127.1012 119.1706 127.4264 
C 116.3525 127.6555 113.5235 128.0297 110.7081 127.9642 
C 99.5597 127.7048 88.4128 127.3471 77.2709 126.8897 
C 75.6906 126.8249 74.1412 126.0092 72.5774 125.541 
C 71.7811 124.6228 71.3397 124.1881 71.341 123.7547 
C 71.3868 108.452 71.4741 93.1495 71.5556 77.8469 
C 72.2056 76.881 72.4597 76.6185 72.7138 76.356 
Z" />
    <text x="98" y="107" dominant-baseline="middle" text-anchor="middle">
        <tspan font-family="'myriad-pro, Helvetica Neue, Helvetica, Arial, sans-serif" 
            font-size="45" font-weight="bold" fill="#000000">AI</tspan>
    </text>
</svg>
