<svg xmlns="http://www.w3.org/2000/svg" viewBox="0 0 200 200">
  <g transform="matrix(0.07027, 0, 0, 0.063201, 7.86562, 68.1798)" id="svg3001" style="">
    <defs id="defs3009"></defs>
    <g transform="matrix(1,0,0,-1,30.372881,1443.4237)" id="g3003">
      <path d="M 2389.8 811.807 C 2389.8 843.117 2366.09 858.771 2318.68 858.771 L 858.771 858.771 C 822.989 858.771 784.747 849.155 744.045 829.922 C 703.343 810.689 671.362 787.207 648.104 759.476 L 253.606 272.391 C 237.504 250.922 229.453 233.031 229.453 218.718 C 229.453 187.409 253.159 171.754 300.57 171.754 L 1760.48 171.754 C 1796.26 171.754 1834.73 181.594 1875.88 201.275 C 1917.03 220.955 1948.78 244.66 1971.15 272.391 L 2365.65 759.476 C 2381.75 779.156 2389.8 796.6 2389.8 811.807 Z M 858.771 1030.53 L 1889.3 1030.53 L 1889.3 1245.22 C 1889.3 1281 1876.77 1311.41 1851.72 1336.46 C 1826.68 1361.51 1796.26 1374.03 1760.48 1374.03 L 987.587 1374.03 C 951.805 1374.03 921.39 1386.56 896.342 1411.61 C 871.295 1436.65 858.771 1467.07 858.771 1502.85 L 858.771 1588.73 C 858.771 1624.51 846.247 1654.92 821.2 1679.97 C 796.152 1705.02 765.738 1717.54 729.956 1717.54 L 300.57 1717.54 C 264.788 1717.54 234.373 1705.02 209.325 1679.97 C 184.278 1654.92 171.754 1624.51 171.754 1588.73 L 171.754 444.146 L 515.263 866.822 C 554.623 914.234 606.507 953.37 670.915 984.232 C 735.323 1015.09 797.942 1030.53 858.771 1030.53 Z M 2561.55 811.807 C 2561.55 756.345 2540.98 702.672 2499.83 650.788 L 2103.99 163.703 C 2065.52 116.292 2013.64 77.155 1948.34 46.293 C 1883.04 15.431 1820.42 0 1760.48 0 L 300.57 0 C 218.271 0 147.601 29.52 88.561 88.561 C 29.52 147.601 0 218.271 0 300.57 L 0 1588.73 C 0 1671.03 29.52 1741.69 88.561 1800.74 C 147.601 1859.78 218.271 1889.3 300.57 1889.3 L 729.956 1889.3 C 812.254 1889.3 882.924 1859.78 941.965 1800.74 C 1001 1741.69 1030.53 1671.03 1030.53 1588.73 L 1030.53 1545.79 L 1760.48 1545.79 C 1842.78 1545.79 1913.45 1516.27 1972.49 1457.23 C 2031.53 1398.19 2061.05 1327.52 2061.05 1245.22 L 2061.05 1030.53 L 2318.68 1030.53 C 2366.99 1030.53 2411.27 1019.57 2451.52 997.651 C 2491.78 975.734 2521.75 944.201 2541.43 903.052 C 2554.84 874.426 2561.55 844.011 2561.55 811.807 Z" id="path3005" style="fill:currentColor"></path>
    </g>
  </g>
</svg>
